<?xml version="1.0" encoding="utf-8"?>
<!-- Generator: Adobe Illustrator 27.3.1, SVG Export Plug-In . SVG Version: 6.00 Build 0)  -->
<svg version="1.1" id="Calque_1" xmlns="http://www.w3.org/2000/svg" xmlns:xlink="http://www.w3.org/1999/xlink" x="0px" y="0px"
	 viewBox="0 0 1000 1000" style="enable-background:new 0 0 1000 1000;" xml:space="preserve">
<style type="text/css">
	.st0{fill:#001E36;}
	.st1{fill:#31A8FF;}
</style>
<g transform="translate(160 83)">
	<path class="st0" d="M25.5-57.8h629c95.4,0,172.5,77.1,172.5,172.5v604.7c0,95.4-77.1,172.5-172.5,172.5h-629
		c-95.4,0-172.5-77.1-172.5-172.5V114.7C-147,19.3-69.9-57.8,25.5-57.8z"/>
	<g>
		<path class="st1" d="M364.4,613.4H107.1c-4.5,0-6.5-2.4-6.5-7.3V191.4c-0.4-2.8,1.6-5.3,4.5-5.7h81.2c2-0.4,4.5,1.2,4.5,3.2V531
			h187.5c4.1,0,5.3,2,4.5,5.7l-11.8,70.6c0,2-1.2,3.7-2.4,4.9C367.2,613,366,613.4,364.4,613.4L364.4,613.4z"/>
		<path class="st1" d="M429.3,288.8h71c4.1,0,7.3,2.8,8.5,6.5c1.6,2.8,2.8,6.1,3.2,9.3c0.8,4.1,1.6,8.5,2,12.6
			c0.4,4.5,0.8,9.3,0.8,14.6c12.2-14.2,26.8-26,43.4-34.9c18.7-10.1,39.4-15,60.5-14.6c2.8-0.4,5.3,1.6,5.7,4.5v80.8
			c0,3.2-2,4.5-6.5,4.5c-26.4-1.6-52.8,3.2-76.7,13.8c-8.1,3.7-15.8,8.5-21.9,15v207c0,4.1-1.6,5.7-5.3,5.7H435
			c-3.2,0.4-6.1-1.6-6.5-4.9V382.1c0-9.7,0-19.9-0.4-30.4s-0.4-21.1-0.8-31.7c-0.4-8.9-1.2-17.9-2.4-26.8c-0.4-2,0.8-4.1,2.8-4.5
			C428.1,288.4,428.5,288.4,429.3,288.8L429.3,288.8z"/>
	</g>
</g>
</svg>
