<?xml version="1.0" encoding="utf-8"?>
<!-- Generator: Adobe Illustrator 27.3.1, SVG Export Plug-In . SVG Version: 6.00 Build 0)  -->
<svg version="1.1" id="Calque_1" xmlns="http://www.w3.org/2000/svg" xmlns:xlink="http://www.w3.org/1999/xlink" x="0px" y="0px"
	 viewBox="0 0 1000 1000" style="enable-background:new 0 0 1000 1000;" xml:space="preserve">
<style type="text/css">
	.st0{fill:#00005B;}
	.st1{fill:#9999FF;}
</style>
<g transform="matrix(1.000000125 0 0 1.000000125 159.9999625 83)">
	<path class="st0" d="M20.4-65.5h639.2c96.9,0,175.3,78.4,175.3,175.3v614.5c0,96.9-78.4,175.3-175.3,175.3H20.4
		c-96.9,0-175.3-78.4-175.3-175.3V109.8C-154.9,12.8-76.5-65.5,20.4-65.5z"/>
	<g>
		<path class="st1" d="M80.2,611.2V186.9c0-2.9,1.2-4.5,4.1-4.5c7,0,13.6,0,23.1-0.4c9.9-0.4,20.2-0.4,31.3-0.8s23.1-0.4,35.9-0.8
			c12.8-0.4,25.2-0.4,37.5-0.4c33.8,0,61.9,4.1,85,12.8c20.6,7,39.6,18.6,55.3,33.8c13.2,13.2,23.5,29.3,30.1,47
			c6.2,17.3,9.5,35.1,9.5,53.6c0,35.5-8.2,64.7-24.7,87.8s-39.6,40.4-66.4,50.3c-28,10.3-59,14-92.8,14c-9.9,0-16.5,0-20.6-0.4
			c-4.1-0.4-9.9-0.4-17.7-0.4v132.4c0.4,2.9-1.6,5.4-4.5,5.8h-80C81.8,616.6,80.2,615,80.2,611.2L80.2,611.2z M170.1,261.9v138.6
			c5.8,0.4,11.1,0.8,16.1,0.8H208c16.1,0,32.2-2.5,47.4-7.4c13.2-3.7,24.7-11.5,33.8-21.9c8.7-10.3,12.8-24.3,12.8-42.5
			c0.4-12.8-2.9-25.6-9.5-36.7c-7-10.7-16.9-19-28.9-23.5c-15.3-6.2-31.8-8.7-48.7-8.2c-10.7,0-20.2,0-28,0.4
			C178.7,261.1,173,261.5,170.1,261.9L170.1,261.9z"/>
		<path class="st1" d="M449.7,285.9h72.2c4.1,0,7.4,2.9,8.7,6.6c1.2,3.3,2.1,6.6,2.5,10.3c0.8,4.1,1.6,8.7,2.1,12.8
			c0.4,4.5,0.8,9.5,0.8,14.8c12.4-14.4,27.2-26.4,44.1-35.5c19-10.7,40.8-16.1,62.7-16.1c2.9-0.4,5.4,1.6,5.8,4.5v82.1
			c0,3.3-2.1,4.5-6.6,4.5c-14.8-0.4-30.1,0.8-44.5,4.1c-12,2.5-23.5,6.2-34.6,11.1c-7.8,3.7-15.3,8.7-21,15.3v210.3
			c0,4.1-1.6,5.8-5.4,5.8h-81.2c-3.3,0.4-6.2-1.6-6.6-4.9V381.5c0-9.9,0-20.2-0.4-30.9c-0.4-10.7-0.4-21.4-0.8-32.2
			c0-9.5-0.8-18.6-1.6-28c-0.4-2.1,0.8-4.1,2.9-4.5C448.5,285.4,449.3,285.4,449.7,285.9L449.7,285.9z"/>
	</g>
</g>
</svg>
