<?xml version="1.0" encoding="utf-8"?>
<!-- Generator: Adobe Illustrator 27.3.1, SVG Export Plug-In . SVG Version: 6.00 Build 0)  -->
<svg version="1.1" id="Layer_1" xmlns="http://www.w3.org/2000/svg" xmlns:xlink="http://www.w3.org/1999/xlink" x="0px" y="0px"
	 viewBox="0 0 1000 1000" style="enable-background:new 0 0 1000 1000;" xml:space="preserve">
<style type="text/css">
	.st0{fill:#001E36;}
	.st1{fill:#31A8FF;}
</style>
<g id="Layer_2_1_">
	<g id="Surfaces">
		<g id="Photo_Surface">
			<g id="Outline_no_shadow">
				<path class="st0" d="M185.5,25.1h629.1c95.4,0,172.5,77.1,172.5,172.5v604.7c0,95.4-77.1,172.5-172.5,172.5H185.5
					C90.1,974.9,13,897.7,13,802.4V197.6C13,102.3,90.1,25.1,185.5,25.1z"/>
			</g>
		</g>
	</g>
	<g id="Outlined_Mnemonics_Logos">
		<g id="Ps">
			<path class="st1" d="M232.1,691.2V273.5c0-2.8,1.2-4.5,4.1-4.5c6.9,0,13.4,0,22.7-0.4c9.7-0.4,19.9-0.4,30.8-0.8
				c11-0.4,22.7-0.4,35.3-0.8c12.6-0.4,24.8-0.4,36.9-0.4c33.3,0,60.9,4.1,83.6,12.6c20.3,6.9,39,18.3,54.4,33.3
				c13,13,23.1,28.8,29.6,46.3c6.1,17,9.3,34.5,9.3,52.8c0,34.9-8.1,63.7-24.4,86.4c-16.2,22.7-39,39.8-65.3,49.5
				c-27.6,10.1-58,13.8-91.3,13.8c-9.7,0-16.2,0-20.3-0.4s-9.7-0.4-17.5-0.4v130.3c0.4,2.8-1.6,5.3-4.5,5.7c-0.4,0-0.8,0-1.6,0H237
				C233.8,696.4,232.1,694.8,232.1,691.2z M320.6,347.4v136.4c5.7,0.4,11,0.8,15.8,0.8h21.5c15.8,0,31.7-2.4,46.7-7.3
				c13-3.7,24.4-11.4,33.3-21.5c8.5-10.1,12.6-23.9,12.6-41.8c0.4-12.6-2.8-25.2-9.3-36.1c-6.9-10.6-16.6-18.7-28.4-23.1
				c-15-6.1-31.3-8.5-47.9-8.1c-10.6,0-19.9,0-27.6,0.4C329.1,346.6,323.5,347,320.6,347.4L320.6,347.4z"/>
			<path class="st1" d="M792.2,459c-12.2-6.5-25.2-11-39-13.8c-15-3.2-30-5.3-45.5-5.3c-8.1-0.4-16.6,0.8-24.4,2.8
				c-5.3,1.2-9.7,4.1-12.6,8.1c-2,3.2-3.2,7.3-3.2,11s1.6,7.3,4.1,10.6c3.7,4.5,8.5,8.1,13.8,11c9.3,4.9,19.1,9.3,28.8,13.4
				c21.9,7.3,43,17.5,62.5,29.6c13.4,8.5,24.4,19.9,32.1,33.7c6.5,13,9.7,27.2,9.3,41.8c0.4,19.1-5.3,38.2-15.8,54
				c-11.4,16.2-27.2,28.8-45.5,36.1c-19.9,8.5-44.2,13-73.5,13c-18.7,0-36.9-1.6-55.2-5.3c-14.2-2.4-28.4-6.9-41.4-13
				c-2.8-1.6-4.9-4.5-4.5-7.7v-70.6c0-1.2,0.4-2.8,1.6-3.7c1.2-0.8,2.4-0.4,3.7,0.4c15.8,9.3,32.5,15.8,50.3,19.9
				c15.4,4.1,31.7,6.1,47.9,6.1c15.4,0,26.4-2,33.7-5.7c6.5-2.8,11-9.7,11-17c0-5.7-3.2-11-9.7-16.2c-6.5-5.3-19.9-11.4-39.8-19.1
				c-20.7-7.3-39.8-17-57.6-29.2c-12.6-8.9-23.1-20.7-30.8-34.5c-6.5-13-9.7-27.2-9.3-41.4c0-17.5,4.9-34.1,13.8-49.1
				c10.1-16.2,25.2-29.2,42.6-37.3c19.1-9.7,43-14.2,71.8-14.2c16.6,0,33.7,1.2,50.3,3.7c12.2,1.6,23.9,4.9,34.9,9.3
				c1.6,0.4,3.2,2,4.1,3.7c0.4,1.6,0.8,3.2,0.8,4.9v66.2c0,1.6-0.8,3.2-2,4.1C795.9,459.8,793.8,459.8,792.2,459z"/>
		</g>
	</g>
</g>
</svg>
