<?xml version="1.0" encoding="utf-8"?>
<!-- Generator: Adobe Illustrator 27.3.1, SVG Export Plug-In . SVG Version: 6.00 Build 0)  -->
<svg version="1.1" id="Calque_1" xmlns="http://www.w3.org/2000/svg" xmlns:xlink="http://www.w3.org/1999/xlink" x="0px" y="0px"
	 viewBox="0 0 1000 1000" style="enable-background:new 0 0 1000 1000;" xml:space="preserve">
<style type="text/css">
	.st0{fill:#470137;}
	.st1{fill:#FF61F6;}
</style>
<g transform="matrix(1.000000125 0 0 1.000000125 159.9999625 83.00005)">
	<path class="st0" d="M27.5-54.8h625c94.8,0,171.4,76.6,171.4,171.4v600.8c0,94.8-76.6,171.4-171.4,171.4h-625
		c-94.8,0-171.4-76.6-171.4-171.4V116.6C-143.9,21.8-67.3-54.8,27.5-54.8z"/>
	<g>
		<path class="st1" d="M365,193.2L244,392.8l129,211.7c0.8,1.6,1.2,3.2,0.8,4.8c-0.4,1.6-2,0.4-4.4,0.8h-92.3
			c-6.5,0-10.9-0.4-13.7-4.4c-8.5-16.9-17.3-33.5-25.8-50.4c-8.5-16.5-17.7-33.5-27.4-50.8c-9.7-17.3-19.4-34.7-29-52.4h-0.8
			c-8.5,17.3-17.7,34.7-27,52c-9.3,17.3-18.5,34.7-27.4,51.6c-9.3,16.9-18.5,34.3-27.8,50.8c-1.6,4-4.8,4.4-9.3,4.4H0.1
			c-1.6,0-2.8,0.8-2.8-1.2c-0.4-1.6,0-3.2,0.8-4.4l125.4-205.7L1.3,192.8c-1.2-1.6-1.6-3.2-0.8-4c0.8-1.2,2.4-1.6,4-1.6H96
			c2,0,4,0.4,5.6,0.8c1.6,0.8,2.8,2,4,3.6c7.7,17.3,16.5,34.7,25.8,52c9.7,17.3,19,34.3,29,51.2c9.7,16.9,18.5,33.9,27,51.2h0.8
			c8.5-17.7,17.3-35.1,26.2-52c8.9-16.9,18.1-33.9,27.4-50.8s18.1-34.3,27-50.8c0.4-1.6,1.2-3.2,2.4-4c1.6-0.8,3.2-1.2,5.2-0.8h85.1
			c2-0.4,4,0.8,4.4,2.8C366.6,190.8,365.8,192.4,365,193.2L365,193.2z"/>
		<path class="st1" d="M551.3,618.6c-29.8,0.4-59.7-5.6-86.7-18.1c-25.4-11.7-46.4-31-60.9-54.8c-14.9-24.6-22.2-55.2-22.2-91.9
			c-0.4-29.8,7.3-59.3,22.2-85.1c15.3-26.2,37.5-48,64.1-62.5c28.2-15.7,62.1-23.4,102-23.4c2,0,4.8,0,8.5,0.4
			c3.6,0.4,7.7,0.4,12.5,0.8V156.5c0-2.8,1.2-4.4,4-4.4h81.9c2-0.4,3.6,1.2,4,2.8v384.7c0,7.3,0.4,15.3,0.8,24.2
			c0.8,8.5,1.2,16.5,1.6,23.4c0,2.8-1.2,5.2-4,6.5c-21,8.9-43.1,15.3-65.7,19.4C592.8,616.6,572.3,618.6,551.3,618.6z M590.8,538
			V360.5c-3.6-0.8-7.3-1.6-10.9-2c-4.4-0.4-8.9-0.8-13.3-0.8c-15.7,0-31.5,3.2-45.6,10.5c-13.7,6.9-25.4,16.9-34.3,29.8
			c-8.9,12.9-13.3,30.2-13.3,51.2c-0.4,14.1,2,28.2,6.9,41.5c4,10.9,10.1,20.6,18.1,28.6c7.7,7.3,16.9,12.9,27.4,16.1
			c10.9,3.6,22.2,5.2,33.5,5.2c6,0,11.7-0.4,16.9-0.8C581.5,540.4,586,539.6,590.8,538L590.8,538z"/>
	</g>
</g>
</svg>
