<?xml version="1.0" encoding="UTF-8"?>
<svg id="Calque_1" data-name="Calque 1" xmlns="http://www.w3.org/2000/svg" viewBox="0 0 180 34.24">
  <defs>
    <style>
      .cls-1 {
        fill: #3c3835;
      }

      .cls-2 {
        fill: #1c9c38;
      }
    </style>
  </defs>
  <polygon class="cls-2" points="34.84 12.43 34.84 33.92 48.7 33.92 48.7 30.66 39.07 30.66 39.07 12.43 34.84 12.43 34.84 12.43"/>
  <path class="cls-2" d="m53.37,17.12c1.33,0,2.43-1.08,2.43-2.44s-1.1-2.44-2.43-2.44-2.43,1.11-2.43,2.44,1.07,2.44,2.43,2.44h0Zm-2.11,16.8h4.23v-15.47h-4.23v15.47h0Z"/>
  <path class="cls-2" d="m62.79,25.84c0-2.66,1.2-4.44,3.47-4.44,2.53,0,3.79,1.81,3.79,4.75s-1.23,4.82-3.73,4.82c-2.18,0-3.54-1.71-3.54-4.44v-.7h0Zm.06-5.58h-.06v-9.16h-4.23v22.82h4.14l.09-1.81h.06c1.33,1.49,2.65,2.12,4.83,2.12,4.1,0,6.82-3.71,6.82-8.34s-2.43-7.77-6.63-7.77c-2.24,0-3.57.67-5.02,2.12h0Z"/>
  <path class="cls-2" d="m85.85,18.14c-2.02.13-3.95,1.36-4.83,3.07h-.06l-.09-2.76h-4.14v15.47h4.23v-5.83c0-3.11.57-4.22,1.55-4.91.85-.6,1.86-.86,3.25-.92l.09-4.12h0Z"/>
  <path class="cls-2" d="m94.6,21.4c1.83,0,2.68,1.49,2.75,3.07h-5.97c.32-1.78,1.55-3.07,3.22-3.07h0Zm6.82,3.87c0-3.84-2.34-7.13-6.38-7.13-4.86,0-7.99,3.36-7.99,8.46s3.22,7.64,7.99,7.64c2.24,0,3.82-.35,5.3-1.01l-.44-3.17c-1.39.57-2.81.92-4.32.92-2.56,0-4.2-1.17-4.36-3.58h10.01c.13-.57.19-1.46.19-2.12h0Z"/>
  <path class="cls-1" d="m114.27,14.27c4.23,0,7.45,3.17,7.45,8.91s-3.22,8.91-7.45,8.91-7.45-3.17-7.45-8.91,3.22-8.91,7.45-8.91h0Zm0-2.16c-5.68,0-10.35,4.15-10.35,11.06s4.67,11.06,10.35,11.06,10.35-4.15,10.35-11.06-4.67-11.06-10.35-11.06h0Z"/>
  <path class="cls-1" d="m128.67,17.6v.98h-2.49v2.03h2.49v13.31h2.65v-13.31h3.91v-2.03h-3.91v-1.39c0-2.76,1.17-4.37,3.28-4.37.98,0,1.61.16,2.21.38l.25-1.97c-.57-.22-1.64-.44-2.49-.44-3.76,0-5.9,2.44-5.9,6.82h0Z"/>
  <path class="cls-1" d="m137.49,17.6v.98h-2.49v2.03h2.49v13.31h2.65v-13.31h3.91v-2.03h-3.91v-1.39c0-2.76,1.17-4.37,3.28-4.37.98,0,1.61.16,2.21.38l.25-1.97c-.57-.22-1.64-.44-2.49-.44-3.76,0-5.9,2.44-5.9,6.82h0Z"/>
  <path class="cls-1" d="m148.45,16.33c.92,0,1.64-.73,1.64-1.65s-.73-1.65-1.64-1.65-1.64.73-1.64,1.65.73,1.65,1.64,1.65h0Zm-1.33,17.59h2.65v-15.34h-2.65v15.34h0Z"/>
  <path class="cls-1" d="m155.29,26.19c0-3.87,2.3-5.9,5.3-5.9,1.58,0,2.97.38,4.1.92l.25-2.03c-.95-.48-2.46-.92-4.14-.92-4.73,0-8.3,2.88-8.3,8.27,0,5.07,3.22,7.7,7.48,7.7,1.89,0,3.25-.22,4.8-.89l-.25-2.03c-1.33.6-2.75.89-4.07.89-3.06,0-5.18-1.93-5.18-6.02h0Z"/>
  <path class="cls-1" d="m173.78,20.29c2.34,0,3.6,1.93,3.6,4.47h-7.99c.38-2.69,1.86-4.47,4.39-4.47h0Zm6.12,6.56c.06-.57.09-1.05.09-1.52,0-3.93-2.05-7.07-6-7.07-4.26,0-7.39,3.55-7.39,8.27,0,5.2,3.12,7.7,7.39,7.7,1.89,0,3.31-.29,4.8-.89l-.25-2.03c-1.17.57-2.84.89-4.17.89-3.06,0-5.05-1.87-5.11-5.36h10.64Z"/>
  <path class="cls-1" d="m26.12,13.34v19.19H1.6V1.61h13.09l.13.13,11.13,11.19.17.17v.23h0ZM15.88.61C15.48.21,14.91,0,14.35,0H1.6C.49,0,0,.93,0,1.6v30.91c0,1.12.48,1.6,1.6,1.6h24.52c1.12,0,1.6-.48,1.6-1.6V13.37c.01-.56-.21-1.13-.6-1.53L15.88.61h0Z"/>
  <path class="cls-1" d="m26.65.01h-6.42c-.11-.02-.22-.02-.33,0-.71.23-.95,1.31-.4,1.82l6.42,6.46c.59.57,1.77.08,1.81-.74V1.09c0-.56-.51-1.08-1.07-1.08h0Z"/>
</svg>