<?xml version="1.0" encoding="UTF-8"?>
<svg id="Layer_1" data-name="Layer 1" xmlns="http://www.w3.org/2000/svg" viewBox="0 0 611.86 173.97">
  <defs>
    <style>
      .cls-1 {
        fill: #fff;
      }

      .cls-2 {
        fill: #069;
      }
    </style>
  </defs>
  <path class="cls-2" d="m611.86,156.58c0,9.61-7.76,17.39-17.33,17.39h-137.27c-9.58,0-17.33-7.79-17.33-17.39V17.39c0-9.61,7.76-17.39,17.33-17.39h137.27c9.58,0,17.33,7.79,17.33,17.39v139.19Z"/>
  <g>
    <path d="m0,35.08h23.13v83.09h40.79v19.48H0V35.08Z"/>
    <path d="m96.02,42.54c0,6.39-4.72,11.57-12.48,11.57-7.31,0-12.02-5.18-12.02-11.57s4.87-11.57,12.33-11.57,12.02,5.02,12.17,11.57Zm-23.89,95.11V63.23h23.13v74.42h-23.13Z"/>
    <path d="m109.1,86.97c0-9.28-.3-17.04-.61-23.74h20.09l1.07,10.35h.46c3.04-4.87,10.5-12.02,22.98-12.02,15.22,0,26.63,10.2,26.63,32.11v43.98h-23.13v-41.24c0-9.59-3.35-16.13-11.72-16.13-6.39,0-10.2,4.41-11.87,8.67-.61,1.52-.76,3.65-.76,5.78v42.91h-23.13v-50.68Z"/>
    <path d="m216.69,94.58h.3c1.68-3.2,3.5-6.24,5.33-8.98l15.07-22.37h27.85l-26.63,30.13,30.44,44.29h-28.46l-18.11-30.59-5.78,7.3v23.29h-23.13V29.6h23.13v64.98Z"/>
    <path d="m287,107.82c.61,9.59,10.2,14.15,21,14.15,7.91,0,14.3-1.07,20.55-3.2l3.04,15.67c-7.61,3.2-16.89,4.72-26.94,4.72-25.26,0-39.72-14.61-39.72-37.89,0-18.87,11.72-39.72,37.59-39.72,24.05,0,33.18,18.72,33.18,37.13,0,3.96-.46,7.46-.76,9.13h-47.94Zm27.24-15.83c0-5.63-2.43-15.07-13.09-15.07-9.74,0-13.7,8.98-14.31,15.07h27.39Z"/>
    <path d="m416.96,29.6v85.83c0,8.37.3,17.2.61,22.22h-20.55l-.91-10.81h-.46c-4.57,8.22-13.7,12.48-23.29,12.48-17.65,0-31.81-15.07-31.81-38.2-.15-25.11,15.52-39.72,33.33-39.72,9.28,0,16.28,3.35,19.63,8.37h.3V29.6h23.13Zm-23.13,65.14c0-1.22,0-2.89-.3-4.26-1.37-6.09-6.39-11.26-13.54-11.26-10.66,0-15.98,9.44-15.98,21.15,0,12.63,6.24,20.54,15.83,20.54,6.7,0,12.17-4.56,13.54-11.11.31-1.67.46-3.5.46-5.33v-9.74Z"/>
  </g>
  <g>
    <path class="cls-1" d="m495.86,42.54c0,6.39-4.72,11.57-12.48,11.57-7.3,0-12.02-5.18-12.02-11.57s4.87-11.57,12.33-11.57,12.02,5.02,12.17,11.57Zm-23.89,95.11V63.23h23.13v74.42h-23.13Z"/>
    <path class="cls-1" d="m508.94,86.97c0-9.28-.3-17.04-.61-23.74h20.09l1.07,10.35h.46c3.04-4.87,10.5-12.02,22.98-12.02,15.22,0,26.63,10.2,26.63,32.11v43.98h-23.13v-41.24c0-9.59-3.35-16.13-11.72-16.13-6.39,0-10.19,4.41-11.87,8.67-.61,1.52-.76,3.65-.76,5.78v42.91h-23.13v-50.68Z"/>
  </g>
</svg>