<?xml version="1.0" encoding="UTF-8"?>
<svg id="Layer_2" data-name="Layer 2" xmlns="http://www.w3.org/2000/svg" viewBox="0 0 338.72 109">
  <defs>
    <style>
      .cls-1 {
        fill: #da3827;
      }

      .cls-2 {
        fill: #da3726;
      }
    </style>
  </defs>
  <polygon class="cls-2" points="57.71 16.29 57.71 93.73 0 85.25 57.33 109 87.67 98.33 87.67 8.67 57.67 0 0 21.33 0 84.44 19 77.33 19.06 25.41 57.71 16.29"/>
  <g>
    <path class="cls-1" d="m152.03,87.2c-4.52,0-8.59-.85-12.21-2.54-3.62-1.69-6.69-4.01-9.21-6.94-2.52-2.94-4.46-6.39-5.82-10.36-1.36-3.97-2.03-8.23-2.03-12.79,0-5.03.68-9.64,2.03-13.82,1.36-4.18,3.33-7.76,5.93-10.74,2.6-2.98,5.78-5.3,9.54-6.97,3.76-1.66,8.05-2.49,12.87-2.49,4.43,0,8.42.82,11.95,2.45,3.53,1.63,6.53,3.9,9.01,6.79,2.48,2.89,4.38,6.32,5.71,10.27,1.33,3.96,1.99,8.26,1.99,12.9,0,4.88-.65,9.42-1.95,13.6-1.3,4.18-3.21,7.8-5.73,10.85-2.52,3.06-5.63,5.46-9.32,7.19-3.69,1.74-7.94,2.61-12.76,2.61Zm.48-61.22c-3.79,0-7.16.74-10.09,2.23-2.93,1.48-5.4,3.49-7.42,6.02-2.01,2.53-3.54,5.5-4.57,8.9-1.04,3.4-1.57,7.02-1.6,10.86-.03,3.66.43,7.15,1.38,10.5.95,3.34,2.38,6.29,4.29,8.86,1.91,2.56,4.32,4.61,7.24,6.14,2.92,1.53,6.33,2.29,10.24,2.29s7.34-.7,10.31-2.09c2.96-1.39,5.43-3.33,7.42-5.8,1.98-2.47,3.48-5.42,4.49-8.83,1.01-3.42,1.51-7.15,1.51-11.19,0-3.78-.45-7.36-1.33-10.74-.89-3.39-2.28-6.34-4.16-8.88-1.88-2.53-4.28-4.54-7.2-6.02-2.92-1.48-6.42-2.23-10.5-2.23Z"/>
    <path class="cls-1" d="m213.67,23.37c-1.25-.84-2.87-1.26-4.86-1.26-5.25,0-7.88,3.52-7.88,10.56v7.37h15.44v5.03h-15.44v40.99h-5.6v-40.99h-7.83v-5.03h7.83v-7.73c0-2.31.28-4.4.85-6.27.57-1.87,1.41-3.48,2.52-4.81,1.11-1.33,2.5-2.36,4.18-3.08,1.68-.72,3.61-1.08,5.8-1.08s3.76.29,4.99.85v5.44Z"/>
    <path class="cls-1" d="m239.43,23.37c-1.25-.84-2.87-1.26-4.86-1.26-5.25,0-7.88,3.52-7.88,10.56v7.37h11.16v5.03h-11.16v40.99h-5.6v-40.99h-7.83v-5.03h7.83v-7.73c0-2.31.28-4.4.85-6.27.57-1.87,1.41-3.48,2.52-4.81,1.11-1.33,2.5-2.36,4.18-3.08,1.68-.72,3.61-1.08,5.8-1.08s3.76.29,4.99.85v5.44Z"/>
    <path class="cls-1" d="m247.08,28.4c-1.08,0-2.01-.39-2.8-1.17-.79-.78-1.18-1.77-1.18-2.97s.39-2.13,1.18-2.9c.79-.76,1.72-1.15,2.8-1.15.55,0,1.08.1,1.58.29.5.19.93.47,1.29.83.36.36.66.79.87,1.28.22.49.33,1.04.33,1.64s-.1,1.11-.31,1.62c-.2.51-.5.95-.88,1.33-.38.38-.81.67-1.29.88-.48.21-1.01.31-1.6.31Zm-2.76,57.67v-46.03h5.6v46.03h-5.6Z"/>
    <path class="cls-1" d="m293.54,84.01c-3.33,2.07-7.35,3.13-12.08,3.19-3.21.03-6.1-.54-8.66-1.71-2.57-1.17-4.76-2.79-6.56-4.88-1.81-2.08-3.19-4.54-4.16-7.37-.96-2.83-1.44-5.91-1.44-9.24s.51-6.69,1.53-9.73c1.02-3.04,2.51-5.69,4.46-7.96,1.95-2.26,4.35-4.05,7.18-5.37,2.83-1.32,6.07-1.98,9.71-1.98s7.09.73,10.15,2.2v6.11c-3.27-2.22-6.8-3.33-10.59-3.33-2.66,0-5.02.52-7.09,1.55-2.07,1.03-3.81,2.44-5.23,4.23-1.41,1.78-2.49,3.87-3.24,6.25-.74,2.38-1.12,4.91-1.12,7.57,0,2.46.31,4.81.94,7.06.63,2.25,1.59,4.23,2.89,5.96,1.3,1.72,2.94,3.09,4.92,4.11,1.98,1.02,4.32,1.53,7,1.53,4.2,0,7.99-1.29,11.38-3.87v5.66Z"/>
    <path class="cls-1" d="m306.34,64.09c.03,2.82.39,5.35,1.09,7.6.7,2.25,1.71,4.15,3.02,5.71,1.31,1.56,2.91,2.75,4.79,3.57,1.88.82,4,1.24,6.37,1.24,5.05,0,9.82-1.81,14.31-5.44v5.66c-4.29,3.15-9.48,4.72-15.58,4.72-3.01,0-5.73-.54-8.18-1.62-2.45-1.08-4.54-2.64-6.26-4.7-1.72-2.05-3.05-4.58-3.98-7.57-.93-3-1.4-6.41-1.4-10.25,0-3.45.51-6.64,1.53-9.57,1.02-2.94,2.44-5.48,4.24-7.62,1.81-2.14,3.95-3.82,6.43-5.03,2.48-1.21,5.19-1.82,8.14-1.82s5.44.52,7.66,1.55,4.08,2.51,5.58,4.43c1.5,1.92,2.65,4.26,3.43,7.01.79,2.76,1.18,5.84,1.18,9.26v2.88h-32.38Zm26.61-5.03c-.09-4.79-1.2-8.51-3.33-11.15-2.13-2.64-5.09-3.96-8.88-3.96-1.9,0-3.65.35-5.27,1.03-1.62.69-3.04,1.69-4.27,2.99-1.22,1.3-2.24,2.89-3.04,4.77-.8,1.87-1.36,3.98-1.68,6.32h26.47Z"/>
  </g>
</svg>