<?xml version="1.0" encoding="UTF-8"?>
<svg id="Layer_1" data-name="Layer 1" xmlns="http://www.w3.org/2000/svg" viewBox="0 0 500 310.18">
  <defs>
    <style>
      .cls-1 {
        fill: #21759b;
      }

      .cls-2 {
        fill: #464646;
      }
    </style>
  </defs>
  <path class="cls-2" d="m156.64,108.26c0,36.76,21.36,68.53,52.34,83.58l-44.3-121.38c-5.15,11.55-8.04,24.33-8.04,37.8Zm155.57-4.68c0-11.48-4.12-19.43-7.66-25.61-4.71-7.65-9.12-14.13-9.12-21.78,0-8.54,6.47-16.48,15.6-16.48.41,0,.8.05,1.2.08-16.52-15.14-38.54-24.38-62.72-24.38-32.45,0-60.99,16.65-77.6,41.86,2.18.07,4.24.11,5.98.11,9.71,0,24.75-1.18,24.75-1.18,5-.29,5.6,7.06.59,7.65,0,0-5.03.59-10.63.88l33.82,100.6,20.33-60.96-14.47-39.65c-5-.29-9.74-.88-9.74-.88-5.01-.3-4.42-7.95.59-7.65,0,0,15.33,1.18,24.46,1.18,9.71,0,24.76-1.18,24.76-1.18,5.01-.29,5.6,7.06.59,7.65,0,0-5.04.59-10.63.88l33.56,99.84,9.27-30.95c4.71-12.07,7.07-22.08,7.07-30.02Zm-61.07,12.81l-27.87,80.97c8.32,2.45,17.12,3.78,26.24,3.78,10.82,0,21.19-1.87,30.84-5.27-.25-.4-.48-.82-.67-1.28l-28.54-78.21Zm79.87-52.68c.4,2.96.63,6.13.63,9.55,0,9.42-1.76,20.02-7.06,33.26l-28.37,82.02c27.61-16.1,46.18-46.01,46.18-80.28,0-16.15-4.13-31.33-11.38-44.56Z"/>
  <path class="cls-2" d="m141.25,108.26c0,59.7,48.57,108.27,108.26,108.27s108.27-48.57,108.27-108.27S309.21,0,249.51,0s-108.26,48.57-108.26,108.26Zm4.97,0c0-56.96,46.34-103.3,103.3-103.3s103.3,46.34,103.3,103.3-46.34,103.3-103.3,103.3-103.3-46.34-103.3-103.3Z"/>
  <path class="cls-1" d="m225.1,259.81h-25.76v2.73c8.06,0,9.35,1.73,9.35,11.95v18.42c0,10.22-1.29,12.09-9.35,12.09-6.19-.86-10.36-4.17-16.12-10.51l-6.62-7.2c8.92-1.59,13.67-7.2,13.67-13.53,0-7.91-6.76-13.96-19.43-13.96h-25.33v2.73c8.06,0,9.35,1.73,9.35,11.95v18.42c0,10.22-1.29,12.09-9.35,12.09v2.73h28.64v-2.73c-8.06,0-9.36-1.87-9.36-12.09v-5.18h2.45l15.98,20h41.88c20.58,0,29.5-10.94,29.5-24.04s-8.92-23.89-29.5-23.89Zm-60.31,23.46v-19.14h5.9c6.48,0,9.36,4.46,9.36,9.64s-2.88,9.5-9.36,9.5h-5.9Zm60.74,20.01h-1.01c-5.18,0-5.9-1.29-5.9-7.92v-31.23h6.91c14.97,0,17.7,10.94,17.7,19.43s-2.73,19.72-17.7,19.72Z"/>
  <path class="cls-1" d="m65.34,288.59l9.93-29.36c2.88-8.49,1.59-10.94-7.63-10.94v-2.88h27.06v2.88c-9.07,0-11.23,2.16-14.83,12.67l-16.41,49.22h-1.87l-14.68-45.05-14.97,45.05h-1.87l-15.98-49.22c-3.45-10.51-5.76-12.67-14.11-12.67v-2.88h31.95v2.88c-8.49,0-10.8,2.01-7.77,10.94l9.64,29.36,14.54-43.18h2.74l14.25,43.18Z"/>
  <path class="cls-1" d="m114.28,309.6c-15.83,0-28.79-11.66-28.79-25.91s12.95-25.76,28.79-25.76,28.79,11.66,28.79,25.76-12.95,25.91-28.79,25.91Zm0-47.21c-13.24,0-17.85,11.94-17.85,21.3s4.61,21.3,17.85,21.3,17.99-11.8,17.99-21.3-4.61-21.3-17.99-21.3Z"/>
  <path class="cls-2" d="m290.16,304.85v2.88h-32.96v-2.88c9.64,0,11.37-2.45,11.37-16.84v-23.03c0-14.4-1.73-16.7-11.37-16.7v-2.88h29.79c14.82,0,23.03,7.63,23.03,17.85s-8.2,17.7-23.03,17.7h-8.2v7.05c0,14.39,1.73,16.84,11.37,16.84Zm-3.17-54.26h-8.2v25.04h8.2c8.06,0,11.8-5.61,11.8-12.37s-3.74-12.67-11.8-12.67Z"/>
  <path class="cls-2" d="m408.89,294.2l-.72,2.59c-1.29,4.75-2.88,6.48-13.1,6.48h-2.01c-7.48,0-8.78-1.73-8.78-11.94v-6.62c11.22,0,12.09,1.01,12.09,8.49h2.73v-21.45h-2.73c0,7.48-.87,8.49-12.09,8.49v-16.12h7.92c10.22,0,11.8,1.73,13.1,6.48l.72,2.73h2.3l-1.01-13.53h-42.32v2.73c8.06,0,9.36,1.73,9.36,11.95v18.42c0,9.35-1.1,11.7-7.45,12.04-6.04-.92-10.19-4.22-15.86-10.46l-6.62-7.2c8.92-1.59,13.68-7.2,13.68-13.53,0-7.91-6.76-13.96-19.43-13.96h-25.33v2.73c8.06,0,9.36,1.73,9.36,11.95v18.42c0,10.22-1.29,12.09-9.36,12.09v2.73h28.64v-2.73c-8.06,0-9.35-1.87-9.35-12.09v-5.18h2.45l15.97,20h59.15l.86-13.53h-2.16Zm-76.28-10.94v-19.14h5.9c6.48,0,9.36,4.46,9.36,9.64s-2.88,9.5-9.36,9.5h-5.9Z"/>
  <path class="cls-2" d="m438.11,309.6c-5.76,0-10.8-3.02-12.95-4.89-.72.72-2.01,2.88-2.3,4.89h-2.73v-19.86h2.88c1.15,9.5,7.77,15.11,16.27,15.11,4.6,0,8.35-2.59,8.35-6.91,0-3.74-3.31-6.62-9.21-9.36l-8.2-3.89c-5.76-2.74-10.08-7.48-10.08-13.82,0-6.91,6.48-12.81,15.4-12.81,4.75,0,8.78,1.73,11.22,3.74.72-.58,1.44-2.16,1.87-3.89h2.73v16.99h-3.02c-1.01-6.77-4.75-12.38-12.38-12.38-4.03,0-7.77,2.3-7.77,5.9s3.02,5.76,9.93,8.92l7.92,3.89c6.91,3.31,9.64,8.64,9.64,12.95,0,9.07-7.92,15.4-17.56,15.4Z"/>
  <path class="cls-2" d="m482.44,309.6c-5.76,0-10.8-3.02-12.96-4.89-.72.72-2.01,2.88-2.3,4.89h-2.74v-19.86h2.88c1.15,9.5,7.77,15.11,16.26,15.11,4.61,0,8.35-2.59,8.35-6.91,0-3.74-3.31-6.62-9.21-9.36l-8.2-3.89c-5.76-2.74-10.08-7.48-10.08-13.82,0-6.91,6.48-12.81,15.4-12.81,4.75,0,8.78,1.73,11.23,3.74.72-.58,1.44-2.16,1.87-3.89h2.73v16.99h-3.02c-1.01-6.77-4.75-12.38-12.38-12.38-4.03,0-7.77,2.3-7.77,5.9s3.02,5.76,9.93,8.92l7.91,3.89c6.91,3.31,9.64,8.64,9.64,12.95,0,9.07-7.92,15.4-17.56,15.4Z"/>
</svg>